<?xml version="1.0" encoding="utf-8"?>
<!-- Generator: Adobe Illustrator 26.0.1, SVG Export Plug-In . SVG Version: 6.00 Build 0)  -->
<svg version="1.1" id="Layer_1" xmlns="http://www.w3.org/2000/svg" xmlns:xlink="http://www.w3.org/1999/xlink" x="0px" y="0px"
	 viewBox="0 0 619.76 141.18" style="enable-background:new 0 0 619.76 141.18;" xml:space="preserve">
<style type="text/css">
	.st0{fill:#FFFFFF;}
	.st1{fill:#E4525C;}
	.st2{fill:#F7F2F3;}
	.st3{fill:none;}
</style>
<g>
	<g>
		<path class="st0" d="M6.43,8.35h53.71v27.52c0,15.2-12.02,27.52-26.86,27.52h0c-14.83,0-26.86-12.32-26.86-27.52V8.35z"/>
		<path class="st0" d="M72.08,8.35h53.71v27.52c0,15.2-12.02,27.52-26.86,27.52h0c-14.83,0-26.86-12.32-26.86-27.52V8.35z"/>
		<path class="st0" d="M33.29,75.64L33.29,75.64c14.83,0,26.86,12.32,26.86,27.52v0c0,15.2-12.02,27.52-26.86,27.52h0
			c-14.83,0-26.86-12.32-26.86-27.52v0C6.43,87.96,18.46,75.64,33.29,75.64z"/>
		<path class="st0" d="M98.94,75.64L98.94,75.64c14.83,0,26.86,12.32,26.86,27.52v0c0,15.2-12.02,27.52-26.86,27.52h0
			c-14.83,0-26.86-12.32-26.86-27.52v0C72.08,87.96,84.11,75.64,98.94,75.64z"/>
	</g>
	<g>
		<path class="st1" d="M178.87,87.04c-1.89,0.05-4.02,0.56-6.38,1.53c-8.82,3.54-13.23,11.15-13.23,22.83
			c0,5.63,2.14,9.67,6.41,12.14c0.37,0.21,0.92,0.32,1.66,0.32c0.74,0,1.05-0.11,0.95-0.32c-0.47-0.05-0.98-0.63-1.53-1.73
			c-0.55-1.1-0.82-1.94-0.82-2.53c0-1.18,0.51-2.22,1.53-3.13c1.02-0.91,2.1-1.37,3.26-1.37c0.94,0,1.67,0.3,2.2,0.88
			c1.67,0.86,2.51,2.33,2.51,4.42c0,1.88-0.69,3.44-2.08,4.7c-1.39,1.26-3.02,1.89-4.9,1.89c-4.18,0-7.53-2.25-10.04-6.74
			c-2.09-3.8-3.14-8.02-3.14-12.68c0-7,2.64-13.69,7.92-20.06h-11.84l-3.92-4.1h27.61L178.87,87.04z"/>
		<path class="st1" d="M219.42,87.2H194.4v15.51c1.41,0,3.01-0.75,4.79-2.25c1.57-1.29,2.8-2.65,3.69-4.1
			c0.52-0.86,1.1-1.58,1.73-2.17c1.99,0.86,3.69,2.79,5.1,5.79c1.31,2.68,1.96,5.25,1.96,7.72c0,4.72-1.15,8.42-3.45,11.09
			c-2.46,2.84-5.96,4.26-10.51,4.26c-4.5,0-8.16-1.69-10.98-5.06c-4.65-5.57-7.48-13.05-8.47-22.43c-0.11-1.34-0.29-3.35-0.55-6.03
			l2.27,1.29c0.52,6.16,2.04,11.58,4.55,16.24c3.24,6,7.48,9,12.71,9c2.93,0,5.57-0.91,7.92-2.73c2.51-2.04,3.77-4.53,3.77-7.48
			c0-1.77-0.73-3.46-2.2-5.06c-0.47,1.5-1.97,3.21-4.51,5.14c-2.54,1.93-4.62,2.89-6.24,2.89c-2.67,0-4.47-1.74-5.41-5.21
			c-0.05-0.21-0.05-5.69,0-16.42H175.1l-3.92-4.1h44.32L219.42,87.2z"/>
		<path class="st1" d="M235.66,87.2h-9.8v42.12l-3.77-4.18V95c0-2.36-0.82-4.34-2.47-5.95c-1.65-1.61-3.62-2.25-5.92-1.93l-4-4.02
			c1.2-0.16,2.3-0.24,3.29-0.24c3.4,0,5.86,0.99,7.37,2.97c0.89,1.07,1.99,3.62,3.29,7.64c-1.05-5.41-1.57-11.28-1.57-17.61
			l1.51,1.29c0.3,2.57,1.05,4.56,2.26,5.95h5.88L235.66,87.2z"/>
		<path class="st1" d="M272.6,78.76c-5.13-3.97-8.26-6.27-9.41-6.91c-3.35-1.93-7.01-2.89-10.98-2.89c-4.65,0-8.39,1.88-11.22,5.63
			c-1.78,2.36-2.67,3.97-2.67,4.82c0,0.11,0.5,1.34,1.49,3.7h7.29l3.92,4.1h-9.88v40.68l-4-3.93V87.2h-5.76l-3.89-4.1h10.12
			c-0.84-0.86-1.67-1.71-2.51-2.57c-0.99-1.13-1.49-2.14-1.49-3.05c0-1.34,0.26-2.46,0.78-3.38c3.66-6.38,8.39-9.57,14.2-9.57
			c8,0,15.71,3.89,23.14,11.66L272.6,78.76z"/>
		<path class="st1" d="M287.82,87.2h-10.35v41.08l-1.65-1.85c-1.05-4.82-2.54-8.12-4.47-9.89c-2.77-2.52-4.81-4.02-6.12-4.5
			l0.08,0.08c0.05,0.32-0.73,1.1-2.35,2.33c-1.25,0.96-2.72,1.45-4.39,1.45c-2.67,0-4.68-1.1-6.04-3.3c0-0.38-0.09-0.92-0.27-1.65
			c-0.18-0.72-0.27-1.27-0.27-1.65c0-2.25,0.81-4.02,2.43-5.31c1.41-1.12,3.27-1.69,5.57-1.69c1.67,0,2.64,0.24,2.9,0.72
			c-0.11-3.32-1.18-5.84-3.22-7.56c-1.25-1.07-3.22-1.96-5.88-2.65c-2.46-0.64-3.84-1.21-4.16-1.69c-0.84-0.54-1.46-1.21-1.88-2.01
			c-0.68-1.23-1.05-1.88-1.1-1.93c-0.05-0.05-1.38-1.42-4-4.1h41.18L287.82,87.2z M273.7,115.18V87.2h-18.2
			c3.61,3.06,5.67,4.84,6.2,5.32c2.25,2.31,3.66,4.6,4.24,6.85c0.89,3.6,1.26,6.18,1.1,7.74
			C268.6,108.78,270.82,111.47,273.7,115.18z"/>
		<path class="st1" d="M324.52,78.76c-5.13-3.97-8.26-6.27-9.41-6.91c-3.35-1.93-7.01-2.89-10.98-2.89c-4.65,0-8.39,1.88-11.22,5.63
			c-1.78,2.36-2.67,3.97-2.67,4.82c0,0.11,0.5,1.34,1.49,3.7h7.29l3.92,4.1h-9.88v40.68l-4-3.93V87.2h-5.76l-3.89-4.1h10.12
			c-0.84-0.86-1.67-1.71-2.51-2.57c-0.99-1.13-1.49-2.14-1.49-3.05c0-1.34,0.26-2.46,0.78-3.38c3.66-6.38,8.39-9.57,14.2-9.57
			c8,0,15.71,3.89,23.14,11.66L324.52,78.76z"/>
		<path class="st1" d="M338.41,87.2h-9.96v41.88l-1.41-2.02c0-0.32,0-0.7,0-1.13c0-4.78-1.33-9.92-4-15.4
			c-3.14-6.4-6.8-9.59-10.98-9.59c-0.47,0-0.79,0.08-0.94,0.24c1.67,2.48,2.51,4.53,2.51,6.15c0,3.29-1.78,4.94-5.33,4.94
			c-4.97,0-7.45-2.54-7.45-7.64c0-2.68,0.92-4.86,2.77-6.55s4.08-2.53,6.68-2.53c5.47,0,10.19,4.34,14.15,13.02V87.2h-26.68
			l-3.91-4.1h40.47L338.41,87.2z"/>
		<path class="st1" d="M372.84,112.44c0,3.38-1.12,6.03-3.37,7.96c-2.25,1.93-5.05,2.89-8.39,2.89c-2.72,0-5.2-0.72-7.45-2.17
			c-1.57-1.07-3.53-2.87-5.88-5.39c-4.24-4.66-8.21-13.77-11.92-27.33l2.67,1.45c2.04,5.58,3.76,9.73,5.18,12.46
			c2.35,4.77,4.97,8.31,7.84,10.61c3.4,2.73,6.54,4.1,9.41,4.1c2.41,0,4.39-0.54,5.96-1.61c1.88-1.23,2.82-3,2.82-5.31
			c0-1.29-0.78-2.57-2.35-3.86c-1.05,1.07-2.25,1.61-3.61,1.61c-1.41,0-2.58-0.44-3.49-1.33c-0.92-0.88-1.37-2.05-1.37-3.5
			c0-1.34,0.45-2.53,1.35-3.58c0.9-1.04,2.02-1.57,3.34-1.57c1.22,0,2.31,0.29,3.26,0.88c1.91-1.02,2.87-2.63,2.87-4.82
			c0-3.38-1.61-5.06-4.83-5.06c-2.06,0-3.63,0.16-4.71,0.48c-1.08,0.32-2.5,1.1-4.24,2.33c-0.85,0.59-1.56,1.37-2.14,2.33
			c1.67,1.07,2.51,2.81,2.51,5.23c0,2.09-1.36,3.13-4.08,3.13c-3.66,0-5.49-1.98-5.49-5.95c0-3.38,1.35-6.26,4.06-8.64
			c2.71-2.38,5.88-3.58,9.51-3.58c3.16,0,5.89,0.75,8.21,2.25c2.63,1.66,3.95,4.02,3.95,7.07c0,1.55-0.28,3.38-0.83,5.47
			c-0.66,2.41-1.43,4.07-2.31,4.98C371.66,107.06,372.84,109.87,372.84,112.44z"/>
		<path class="st1" d="M415.9,87.2h-9.96v41.88l-1.41-2.02c0-0.32,0-0.7,0-1.13c0-4.78-1.33-9.92-4-15.4
			c-3.14-6.4-6.8-9.59-10.98-9.59c-0.47,0-0.78,0.08-0.94,0.24c1.67,2.48,2.51,4.53,2.51,6.15c0,3.29-1.78,4.94-5.33,4.94
			c-4.97,0-7.45-2.54-7.45-7.64c0-2.68,0.92-4.86,2.78-6.55s4.08-2.53,6.68-2.53c5.47,0,10.19,4.34,14.15,13.02V87.2h-26.68
			l-3.91-4.1h40.47L415.9,87.2z"/>
		<path class="st1" d="M476.85,87.2h-25.02v15.51c1.41,0,3.01-0.75,4.79-2.25c1.57-1.29,2.8-2.65,3.69-4.1
			c0.52-0.86,1.1-1.58,1.73-2.17c1.99,0.86,3.69,2.79,5.1,5.79c1.31,2.68,1.96,5.25,1.96,7.72c0,4.72-1.15,8.42-3.45,11.09
			c-2.46,2.84-5.96,4.26-10.51,4.26c-4.5,0-8.16-1.69-10.98-5.06c-4.66-5.57-7.48-13.05-8.47-22.43c-0.11-1.34-0.29-3.35-0.55-6.03
			l2.27,1.29c0.52,6.16,2.04,11.58,4.55,16.24c3.24,6,7.48,9,12.71,9c2.93,0,5.57-0.91,7.92-2.73c2.51-2.04,3.77-4.53,3.77-7.48
			c0-1.77-0.73-3.46-2.2-5.06c-0.47,1.5-1.97,3.21-4.51,5.14c-2.54,1.93-4.62,2.89-6.24,2.89c-2.67,0-4.47-1.74-5.41-5.21
			c-0.05-0.21-0.05-5.69,0-16.42h-15.45l-3.92-4.1h44.32L476.85,87.2z"/>
		<path class="st1" d="M510.19,87.12h-28.47v26.93c0,1.93,1.02,2.89,3.06,2.89c2.2,0,4.59-1.4,7.18-4.2
			c2.59-2.8,4.01-5.37,4.28-7.69c-0.37,0-0.76,0-1.18,0c-1.36,0-2.54-0.42-3.53-1.25s-1.49-1.94-1.49-3.34
			c0-1.55,0.5-2.84,1.49-3.86c0.99-1.02,2.28-1.53,3.84-1.53c1.93,0,3.52,0.79,4.75,2.37c1.23,1.58,1.84,3.39,1.84,5.43
			c0,4.72-1.36,8.52-4.08,11.42c-4.86,5.2-8.66,7.8-11.37,7.8c-4.13,0-6.88-2.38-8.24-7.16c-0.21-0.75-0.31-2.65-0.31-5.71V87.12
			h-6.2l-3.22-4.02h29.49c0-0.27,0-0.64,0-1.12c0.05-0.48,0.08-0.86,0.08-1.13c0-1.07-0.54-1.93-1.61-2.57
			c-1.07-0.64-2.16-0.96-3.26-0.96c-1.31,0-3.22,0.09-5.73,0.28c-2.51,0.19-4.39,0.28-5.65,0.28c-3.03,0-5.7-0.72-8-2.16
			c-2.72-1.65-4.08-3.92-4.08-6.79c0-1.38,0.42-2.61,1.26-3.68c0.21-0.59,0.71-0.85,1.49-0.8h0.16c0.11,0.38,0.16,0.86,0.16,1.45
			c-0.63,0.64-0.94,1.34-0.94,2.09c0,1.45,0.68,2.6,2.04,3.46c1.15,0.7,2.48,1.04,4,1.04c0.1,0,1.62-0.11,4.55-0.32h-0.16l0.16-0.08
			h0.55l2.98-0.24c1.04-0.05,2.09-0.08,3.14-0.08c3.76,0,6.8,0.83,9.1,2.49c2.72,1.98,3.89,4.85,3.53,8.6h4.47L510.19,87.12z"/>
		<path class="st1" d="M575.29,87.2h-21.02v2.81c0.21,0,0.47,0,0.79,0c3.68,0,6.96,1.77,9.86,5.31c2.73,3.38,4.1,6.97,4.1,10.77
			c0,2.04-0.55,3.81-1.65,5.31c-1.2,1.66-2.77,2.49-4.71,2.49c-1.31,0-2.48-0.48-3.53-1.45c-1.05-0.96-1.57-2.12-1.57-3.46
			c0-1.5,0.73-2.87,2.2-4.1c0.84-0.27,1.59-0.4,2.27-0.4c1.15,0,2.48,0.7,4,2.09c0.05-0.21,0.08-0.46,0.08-0.72
			c0-2.73-1.12-5.13-3.37-7.2c-2.25-2.06-4.71-3.09-7.37-3.09c-0.37,0-0.73,0.03-1.1,0.08v32.08l-1.41-1.44l-1.18-3.53
			c-0.52-1.55-1.67-3.39-3.45-5.54c-3.97-4.76-8.5-7.43-13.57-8.02l-5.41-6.82c6.64-5.67,13.7-9.68,21.18-12.03V87.2h-23.87
			l-3.98-4.1h48.87L575.29,87.2z M550.42,116.78V95.56c-2.98,1.19-7.4,3.89-13.26,8.1C542.82,106.15,547.23,110.52,550.42,116.78z"
			/>
		<path class="st1" d="M612.15,87.2H601.8v41.08l-1.65-1.85c-1.05-4.82-2.54-8.12-4.47-9.89c-2.77-2.52-4.81-4.02-6.12-4.5
			l0.08,0.08c0.05,0.32-0.73,1.1-2.35,2.33c-1.25,0.96-2.72,1.45-4.39,1.45c-2.67,0-4.68-1.1-6.04-3.3c0-0.38-0.09-0.92-0.27-1.65
			c-0.18-0.72-0.27-1.27-0.27-1.65c0-2.25,0.81-4.02,2.43-5.31c1.41-1.12,3.27-1.69,5.57-1.69c1.67,0,2.64,0.24,2.9,0.72
			c-0.11-3.32-1.18-5.84-3.22-7.56c-1.25-1.07-3.22-1.96-5.88-2.65c-2.46-0.64-3.84-1.21-4.16-1.69c-0.84-0.54-1.46-1.21-1.88-2.01
			c-0.68-1.23-1.04-1.88-1.1-1.93c-0.05-0.05-1.38-1.42-4-4.1h41.18L612.15,87.2z M598.03,115.18V87.2h-18.2
			c3.61,3.06,5.67,4.84,6.2,5.32c2.25,2.31,3.66,4.6,4.24,6.85c0.89,3.6,1.25,6.18,1.1,7.74
			C592.94,108.78,595.16,111.47,598.03,115.18z"/>
	</g>
	<g>
		<g>
			<path class="st2" d="M149.65,50.14V10.4h17.62c4.21,0,7.92,0.82,11.13,2.47s5.72,3.96,7.53,6.93c1.81,2.97,2.71,6.46,2.71,10.47
				c0,4.01-0.91,7.5-2.71,10.47c-1.81,2.97-4.32,5.28-7.53,6.93s-6.92,2.47-11.13,2.47H149.65z M158.62,42.59h8.2
				c2.58,0,4.83-0.5,6.73-1.5c1.9-1,3.38-2.42,4.43-4.26c1.05-1.84,1.58-4.02,1.58-6.56c0-2.54-0.53-4.72-1.58-6.56
				c-1.05-1.84-2.53-3.25-4.43-4.26c-1.9-1-4.15-1.5-6.73-1.5h-8.2V42.59z"/>
			<path class="st2" d="M214.18,50.82c-3.07,0-5.88-0.51-8.45-1.53c-2.57-1.02-4.81-2.46-6.73-4.31c-1.92-1.85-3.41-4.03-4.46-6.53
				c-1.05-2.5-1.58-5.22-1.58-8.18s0.53-5.68,1.58-8.18c1.05-2.5,2.54-4.67,4.46-6.53c1.92-1.85,4.16-3.29,6.73-4.31
				c2.57-1.02,5.38-1.53,8.45-1.53s5.88,0.51,8.45,1.53c2.57,1.02,4.81,2.45,6.73,4.29c1.92,1.84,3.41,4.01,4.46,6.53
				c1.05,2.52,1.58,5.25,1.58,8.2s-0.53,5.69-1.58,8.2c-1.05,2.52-2.54,4.69-4.46,6.53c-1.92,1.84-4.16,3.26-6.73,4.29
				C220.06,50.31,217.25,50.82,214.18,50.82z M214.18,42.99c2.29,0,4.35-0.54,6.18-1.62s3.28-2.57,4.35-4.49
				c1.07-1.91,1.61-4.12,1.61-6.61s-0.54-4.7-1.61-6.61c-1.07-1.91-2.52-3.41-4.35-4.48c-1.83-1.08-3.89-1.62-6.18-1.62
				s-4.35,0.54-6.18,1.62c-1.83,1.08-3.28,2.57-4.35,4.48c-1.07,1.91-1.61,4.12-1.61,6.61s0.53,4.7,1.61,6.61
				c1.07,1.91,2.52,3.41,4.35,4.49C209.83,42.45,211.89,42.99,214.18,42.99z"/>
			<path class="st2" d="M242.16,50.14V10.4h7.42l14.51,24.7l14.29-24.7h7.37l0.11,39.74h-8.42l-0.05-23.79l-11.41,19.59h-4.04
				l-11.36-19.19v23.39H242.16z"/>
			<path class="st2" d="M295.06,50.14V10.4h8.97v39.74H295.06z"/>
			<path class="st2" d="M313.23,50.14V10.4h7.42l19.28,24.19V10.4h8.86v39.74h-7.37l-19.33-24.19v24.19H313.23z"/>
			<path class="st2" d="M357.98,50.14V10.4h8.97v39.74H357.98z"/>
			<path class="st2" d="M394.93,50.82c-3.07,0-5.88-0.51-8.45-1.53s-4.81-2.46-6.73-4.31s-3.41-4.03-4.46-6.53s-1.58-5.22-1.58-8.18
				s0.53-5.68,1.58-8.18s2.54-4.67,4.46-6.53c1.92-1.85,4.16-3.29,6.73-4.31s5.38-1.53,8.45-1.53c3.06,0,5.88,0.51,8.45,1.53
				c2.57,1.02,4.81,2.45,6.73,4.29c1.92,1.84,3.41,4.01,4.46,6.53c1.05,2.52,1.58,5.25,1.58,8.2s-0.53,5.69-1.58,8.2
				c-1.05,2.52-2.54,4.69-4.46,6.53c-1.92,1.84-4.16,3.26-6.73,4.29C400.81,50.31,398,50.82,394.93,50.82z M394.93,42.99
				c2.29,0,4.35-0.54,6.18-1.62c1.83-1.08,3.28-2.57,4.35-4.49c1.07-1.91,1.61-4.12,1.61-6.61s-0.54-4.7-1.61-6.61
				c-1.07-1.91-2.52-3.41-4.35-4.48c-1.83-1.08-3.89-1.62-6.18-1.62c-2.29,0-4.35,0.54-6.18,1.62c-1.83,1.08-3.28,2.57-4.35,4.48
				c-1.07,1.91-1.61,4.12-1.61,6.61s0.54,4.7,1.61,6.61c1.07,1.91,2.52,3.41,4.35,4.49S392.64,42.99,394.93,42.99z"/>
			<path class="st2" d="M422.91,50.14V10.4h7.42l19.28,24.19V10.4h8.86v39.74h-7.37l-19.33-24.19v24.19H422.91z"/>
			<path class="st2" d="M470.32,50.59c-1.48,0-2.74-0.52-3.79-1.56c-1.05-1.04-1.58-2.37-1.58-4c0-1.63,0.53-2.94,1.58-3.95
				c1.05-1,2.32-1.5,3.79-1.5c1.51,0,2.79,0.5,3.82,1.5c1.03,1,1.55,2.32,1.55,3.95c0,1.63-0.52,2.96-1.55,4
				C473.11,50.07,471.84,50.59,470.32,50.59z"/>
			<path class="st2" d="M499.63,50.82c-2.99,0-5.77-0.51-8.34-1.53s-4.79-2.45-6.67-4.29c-1.88-1.84-3.35-4-4.4-6.5
				c-1.05-2.5-1.58-5.24-1.58-8.23c0-2.99,0.53-5.73,1.58-8.23c1.05-2.5,2.53-4.66,4.43-6.5c1.9-1.84,4.13-3.26,6.67-4.29
				c2.55-1.02,5.34-1.53,8.36-1.53c3.36,0,6.41,0.61,9.14,1.82c2.73,1.21,5,2.95,6.81,5.22l-5.76,5.45
				c-2.66-3.1-5.91-4.66-9.75-4.66c-2.44,0-4.59,0.54-6.45,1.62c-1.87,1.08-3.32,2.57-4.38,4.48c-1.05,1.91-1.58,4.12-1.58,6.61
				s0.53,4.7,1.58,6.61c1.05,1.91,2.51,3.41,4.38,4.49c1.86,1.08,4.02,1.62,6.45,1.62c3.84,0,7.09-1.57,9.75-4.71l5.76,5.45
				c-1.81,2.31-4.08,4.07-6.81,5.28C506.09,50.21,503.02,50.82,499.63,50.82z"/>
			<path class="st2" d="M538.24,50.82c-3.07,0-5.88-0.51-8.45-1.53s-4.81-2.46-6.73-4.31s-3.41-4.03-4.46-6.53s-1.58-5.22-1.58-8.18
				s0.53-5.68,1.58-8.18s2.54-4.67,4.46-6.53c1.92-1.85,4.16-3.29,6.73-4.31s5.38-1.53,8.45-1.53c3.06,0,5.88,0.51,8.45,1.53
				c2.57,1.02,4.81,2.45,6.73,4.29c1.92,1.84,3.41,4.01,4.46,6.53c1.05,2.52,1.58,5.25,1.58,8.2s-0.53,5.69-1.58,8.2
				c-1.05,2.52-2.54,4.69-4.46,6.53c-1.92,1.84-4.16,3.26-6.73,4.29C544.12,50.31,541.3,50.82,538.24,50.82z M538.24,42.99
				c2.29,0,4.35-0.54,6.18-1.62c1.83-1.08,3.28-2.57,4.35-4.49c1.07-1.91,1.61-4.12,1.61-6.61s-0.54-4.7-1.61-6.61
				c-1.07-1.91-2.52-3.41-4.35-4.48c-1.83-1.08-3.89-1.62-6.18-1.62c-2.29,0-4.35,0.54-6.18,1.62c-1.83,1.08-3.28,2.57-4.35,4.48
				c-1.07,1.91-1.61,4.12-1.61,6.61s0.54,4.7,1.61,6.61c1.07,1.91,2.52,3.41,4.35,4.49S535.95,42.99,538.24,42.99z"/>
			<path class="st2" d="M566.21,50.14V10.4h7.42l14.51,24.7l14.29-24.7h7.37l0.11,39.74h-8.42l-0.05-23.79l-11.41,19.59h-4.04
				l-11.36-19.19v23.39H566.21z"/>
		</g>
	</g>
	<rect x="498.98" y="121.99" class="st3" width="3.57" height="0"/>
</g>
</svg>
